# G1000 cutters for flightdeck.blend - model frame (x aft, y right, z up) in metres
o G1000_PFD_cutter
v -4.7000 -0.5635 0.0635
v -4.7000 -0.5635 0.2665
v -4.7000 -0.2865 0.0635
v -4.7000 -0.2865 0.2665
v -4.6200 -0.5635 0.0635
v -4.6200 -0.5635 0.2665
v -4.6200 -0.2865 0.0635
v -4.6200 -0.2865 0.2665
f 1 2 4 3
f 5 7 8 6
f 1 5 6 2
f 3 4 8 7
f 1 3 7 5
f 2 6 8 4
o G1000_MFD_cutter
v -4.7000 -0.1285 0.0635
v -4.7000 -0.1285 0.2665
v -4.7000 0.1485 0.0635
v -4.7000 0.1485 0.2665
v -4.6200 -0.1285 0.0635
v -4.6200 -0.1285 0.2665
v -4.6200 0.1485 0.0635
v -4.6200 0.1485 0.2665
f 9 10 12 11
f 13 15 16 14
f 9 13 14 10
f 11 12 16 15
f 9 11 15 13
f 10 14 16 12
